<svg width="46" height="389" viewBox="0 0 46 389" fill="none" xmlns="http://www.w3.org/2000/svg">
<path d="M26 30C26 28.3431 24.6569 27 23 27C21.3431 27 20 28.3431 20 30H26ZM20.8787 388.121C22.0503 389.293 23.9497 389.293 25.1213 388.121L44.2132 369.029C45.3848 367.858 45.3848 365.958 44.2132 364.787C43.0416 363.615 41.1421 363.615 39.9706 364.787L23 381.757L6.02944 364.787C4.85786 363.615 2.95837 363.615 1.7868 364.787C0.615223 365.958 0.615223 367.858 1.7868 369.029L20.8787 388.121ZM20 30V386H26V30H20Z" fill="#826AED"/>
<circle cx="23" cy="21" r="3" fill="#826AED"/>
<circle cx="23" cy="12" r="3" fill="#826AED"/>
<circle cx="23" cy="3" r="3" fill="#826AED"/>
</svg>
